<svg width="36" height="36" viewBox="0 0 36 36" fill="none" xmlns="http://www.w3.org/2000/svg">
<path d="M30.8292 8.37045L27.172 12.0411L23.6055 11.3937L22.9647 7.82665L26.6219 4.156C25.7998 3.33382 24.6282 2.95834 23.7609 3.00366C22.8871 3.04897 21.0229 3.54098 19.5795 5.07528C18.1814 6.55131 16.712 9.30268 18.0131 12.3583C18.1684 12.7273 18.3432 13.2129 17.8254 13.7308C17.3011 14.2487 3.90889 26.8597 3.90889 26.8597C2.65317 27.9408 2.74379 29.9412 3.90242 31.1065C5.08046 32.2653 7.0676 32.3365 8.14856 31.0871C8.14856 31.0871 20.654 17.764 21.2689 17.1619C21.8191 16.6246 22.311 16.8058 22.6411 16.9742C24.9454 18.1653 28.2271 17.1295 29.9294 15.4269C31.6318 13.7243 31.9425 12.08 31.9943 11.2384C32.046 10.4032 31.7548 9.29621 30.8292 8.37045ZM6.84106 29.624C6.43327 30.0254 5.77305 30.0254 5.37174 29.624C4.97043 29.2162 4.97043 28.5558 5.37174 28.1544C5.77952 27.7531 6.43975 27.7531 6.84106 28.1544C7.24237 28.5623 7.24237 29.2226 6.84106 29.624Z" fill="white"/>
</svg>
