<svg width="36" height="36" viewBox="0 0 36 36" fill="none" xmlns="http://www.w3.org/2000/svg">
<mask id="path-1-inside-1_599_9" fill="white">
<path d="M23.1538 6.15381H26.3846C26.9559 6.15381 27.5037 6.38073 27.9076 6.78466C28.3115 7.18858 28.5385 7.73642 28.5385 8.30765V29.8461C28.5385 30.4174 28.3115 30.9652 27.9076 31.3691C27.5037 31.773 26.9559 32 26.3846 32H9.15385C8.58261 32 8.03477 31.773 7.63085 31.3691C7.22692 30.9652 7 30.4174 7 29.8461V8.30765C7 7.73642 7.22692 7.18858 7.63085 6.78466C8.03477 6.38073 8.58261 6.15381 9.15385 6.15381H12.3846"/>
</mask>
<path d="M23.1538 3.65381C21.7731 3.65381 20.6538 4.7731 20.6538 6.15381C20.6538 7.53452 21.7731 8.65381 23.1538 8.65381V3.65381ZM26.3846 6.15381V3.65381V6.15381ZM7 29.8461L4.5 29.8461L7 29.8461ZM9.15385 6.15381L9.15385 3.65381L9.15385 6.15381ZM12.3846 8.65381C13.7653 8.65381 14.8846 7.53452 14.8846 6.15381C14.8846 4.7731 13.7653 3.65381 12.3846 3.65381V8.65381ZM23.1538 8.65381H26.3846V3.65381H23.1538V8.65381ZM26.3846 8.65381C26.2928 8.65381 26.2048 8.61734 26.1398 8.55242L29.6754 5.01689C28.8026 4.14412 27.6189 3.65381 26.3846 3.65381L26.3846 8.65381ZM26.1398 8.55242C26.0749 8.48751 26.0385 8.39946 26.0385 8.30765H31.0385C31.0385 7.07338 30.5481 5.88965 29.6754 5.01689L26.1398 8.55242ZM26.0385 8.30765V29.8461H31.0385V8.30765H26.0385ZM26.0385 29.8461C26.0385 29.7543 26.0749 29.6663 26.1398 29.6013L29.6754 33.1369C30.5481 32.2641 31.0385 31.0804 31.0385 29.8461H26.0385ZM26.1398 29.6013C26.2048 29.5364 26.2928 29.5 26.3846 29.5V34.5C27.6189 34.5 28.8026 34.0096 29.6754 33.1369L26.1398 29.6013ZM26.3846 29.5H9.15385V34.5H26.3846V29.5ZM9.15385 29.5C9.24565 29.5 9.3337 29.5364 9.39861 29.6013L5.86308 33.1369C6.73584 34.0096 7.91957 34.5 9.15385 34.5V29.5ZM9.39861 29.6013C9.46353 29.6663 9.5 29.7543 9.5 29.8461L4.5 29.8461C4.5 31.0804 4.99031 32.2641 5.86308 33.1369L9.39861 29.6013ZM9.5 29.8461V8.30765H4.5V29.8461H9.5ZM9.5 8.30765C9.5 8.39946 9.46353 8.48751 9.39861 8.55242L5.86308 5.01689C4.99031 5.88965 4.5 7.07338 4.5 8.30765H9.5ZM9.39861 8.55242C9.3337 8.61734 9.24565 8.65381 9.15385 8.65381L9.15385 3.65381C7.91957 3.65381 6.73585 4.14412 5.86308 5.01689L9.39861 8.55242ZM9.15385 8.65381H12.3846V3.65381H9.15385V8.65381Z" fill="white" mask="url(#path-1-inside-1_599_9)"/>
<path d="M14.5385 5H21C21.6372 5 22.1538 5.51659 22.1538 6.15385V7.23077C22.1538 7.86802 21.6372 8.38462 21 8.38462H14.5385C13.9012 8.38462 13.3846 7.86802 13.3846 7.23077V6.15385C13.3846 5.51659 13.9012 5 14.5385 5Z" stroke="white" stroke-width="2" stroke-linecap="round" stroke-linejoin="round"/>
<path d="M12.3846 21.2307L16.6923 24.4615L22.0769 15.8461" stroke="white" stroke-width="2" stroke-linecap="round" stroke-linejoin="round"/>
</svg>
